<svg fill="none" height="48" viewBox="0 0 255 48" width="255" xmlns="http://www.w3.org/2000/svg" xmlns:xlink="http://www.w3.org/1999/xlink"><filter id="a" color-interpolation-filters="sRGB" filterUnits="userSpaceOnUse" height="54" width="48" x="0" y="-3"><feFlood flood-opacity="0" result="BackgroundImageFix"/><feBlend in="SourceGraphic" in2="BackgroundImageFix" mode="normal" result="shape"/><feColorMatrix in="SourceAlpha" result="hardAlpha" type="matrix" values="0 0 0 0 0 0 0 0 0 0 0 0 0 0 0 0 0 0 127 0"/><feOffset dy="-3"/><feGaussianBlur stdDeviation="1.5"/><feComposite in2="hardAlpha" k2="-1" k3="1" operator="arithmetic"/><feColorMatrix type="matrix" values="0 0 0 0 0 0 0 0 0 0 0 0 0 0 0 0 0 0 0.1 0"/><feBlend in2="shape" mode="normal" result="effect1_innerShadow_3046_38732"/><feColorMatrix in="SourceAlpha" result="hardAlpha" type="matrix" values="0 0 0 0 0 0 0 0 0 0 0 0 0 0 0 0 0 0 127 0"/><feOffset dy="3"/><feGaussianBlur stdDeviation="1.5"/><feComposite in2="hardAlpha" k2="-1" k3="1" operator="arithmetic"/><feColorMatrix type="matrix" values="0 0 0 0 1 0 0 0 0 1 0 0 0 0 1 0 0 0 0.1 0"/><feBlend in2="effect1_innerShadow_3046_38732" mode="normal" result="effect2_innerShadow_3046_38732"/><feColorMatrix in="SourceAlpha" result="hardAlpha" type="matrix" values="0 0 0 0 0 0 0 0 0 0 0 0 0 0 0 0 0 0 127 0"/><feMorphology in="SourceAlpha" operator="erode" radius="1" result="effect3_innerShadow_3046_38732"/><feOffset/><feComposite in2="hardAlpha" k2="-1" k3="1" operator="arithmetic"/><feColorMatrix type="matrix" values="0 0 0 0 0.0627451 0 0 0 0 0.0941176 0 0 0 0 0.156863 0 0 0 0.24 0"/><feBlend in2="effect2_innerShadow_3046_38732" mode="normal" result="effect3_innerShadow_3046_38732"/></filter><filter id="b" color-interpolation-filters="sRGB" filterUnits="userSpaceOnUse" height="42" width="33.75" x="7.625" y="5.25"><feFlood flood-opacity="0" result="BackgroundImageFix"/><feColorMatrix in="SourceAlpha" result="hardAlpha" type="matrix" values="0 0 0 0 0 0 0 0 0 0 0 0 0 0 0 0 0 0 127 0"/><feMorphology in="SourceAlpha" operator="erode" radius="1.5" result="effect1_dropShadow_3046_38732"/><feOffset dy="2.25"/><feGaussianBlur stdDeviation="2.25"/><feComposite in2="hardAlpha" operator="out"/><feColorMatrix type="matrix" values="0 0 0 0 0.141176 0 0 0 0 0.141176 0 0 0 0 0.141176 0 0 0 0.1 0"/><feBlend in2="BackgroundImageFix" mode="normal" result="effect1_dropShadow_3046_38732"/><feBlend in="SourceGraphic" in2="effect1_dropShadow_3046_38732" mode="normal" result="shape"/></filter><linearGradient id="c" gradientUnits="userSpaceOnUse" x1="24" x2="26" y1=".000001" y2="48"><stop offset="0" stop-color="#fff" stop-opacity="0"/><stop offset="1" stop-color="#fff" stop-opacity=".12"/></linearGradient><linearGradient id="d" gradientUnits="userSpaceOnUse" x1="24.374" x2="24.374" y1="7.5" y2="40.5"><stop offset="0" stop-color="#fff" stop-opacity=".8"/><stop offset="1" stop-color="#fff" stop-opacity=".5"/></linearGradient><linearGradient id="e" gradientUnits="userSpaceOnUse" x1="24" x2="24" y1="0" y2="48"><stop offset="0" stop-color="#fff" stop-opacity=".12"/><stop offset="1" stop-color="#fff" stop-opacity="0"/></linearGradient><clipPath id="f"><rect height="48" rx="12" width="48"/></clipPath><g filter="url(#a)"><g clip-path="url(#f)"><rect fill="#ff4405" height="48" rx="12" width="48"/><path d="m0 0h48v48h-48z" fill="url(#c)"/><g filter="url(#b)"><path d="m12.125 12.2141v8.9953c0 .2679.1429.5155.375.6495l7.791 4.4987m-8.166-14.1435 8.1669 4.7142m-8.1669-4.7142 7.7879-4.49757c.232-.13399.5179-.13404.7499-.00013l7.7942 4.4977m-8.166 14.1435 8.166-4.7152m-8.166 4.7152.0009-9.4293m-.0009 9.4293v8.9952c0 .268.143.5156.375.6496l7.7918 4.4976m-8.1668-14.1424 8.1668 4.7141m-8.1659-14.1434 8.1651-4.7142m0 0v9.4283m0 0 8.166 4.7152m-8.1652 4.7141 8.1652-4.7141m-8.1652 4.7141v9.4283m8.1652-14.1424v8.9953c0 .2679-.143.5155-.375.6495l-7.7902 4.4976" stroke="url(#d)" stroke-linejoin="round" stroke-width="3"/></g></g><rect height="46" rx="11" stroke="url(#e)" stroke-width="2" width="46" x="1" y="1"/></g><g fill="#0A0D12"><path d="m60 32.9999v-20.412h10.024c2.072 0 3.6307.4853 4.676 1.456 1.0453.952 1.568 2.212 1.568 3.78 0 1.0453-.2707 1.9787-.812 2.8-.5227.8213-1.2787 1.372-2.268 1.652v.224c1.176.2427 2.072.7933 2.688 1.652.6347.84.952 1.8387.952 2.996 0 1.9227-.644 3.3787-1.932 4.368-1.2693.9893-3.0707 1.484-5.404 1.484zm4.228-12.04h4.76c1.008 0 1.736-.2333 2.184-.7.4667-.4667.7-1.0733.7-1.82 0-.84-.28-1.4653-.84-1.876-.5413-.4293-1.2693-.644-2.184-.644h-4.62zm0 8.68h4.788c1.1573 0 2.0067-.252 2.548-.756s.812-1.1667.812-1.988c0-.9333-.2893-1.6147-.868-2.044-.56-.448-1.3347-.672-2.324-.672h-4.956z"/><path d="m83.9148 33.2519c-1.736 0-3.0613-.504-3.976-1.512-.9146-1.008-1.372-2.4733-1.372-4.396v-9.352h4.116v8.26c0 1.1947.2147 2.1093.644 2.744.448.616 1.1854.924 2.212.924 1.0454 0 1.848-.3547 2.408-1.064.5787-.728.868-1.5867.868-2.576v-8.288h4.116v15.008h-3.948l-.168-2.744h-.196c-.3546.9707-.9613 1.7173-1.82 2.24-.84.504-1.8013.756-2.884.756z"/><path d="m95.7562 16.0599v-3.472h4.116v3.472zm0 16.94v-15.008h4.116v15.008z"/><path d="m102.852 32.9999v-20.412h4.116v20.412z"/><path d="m115.045 33.2519c-1.792 0-3.239-.644-4.34-1.932-1.102-1.3067-1.652-3.248-1.652-5.824 0-2.5947.55-4.536 1.652-5.824 1.101-1.3067 2.548-1.96 4.34-1.96 1.157 0 2.146.2613 2.968.784.84.5227 1.437 1.2227 1.792 2.1h.224v-8.008h4.116v20.412h-3.976l-.14-2.632h-.224c-.355.8587-.952 1.5587-1.792 2.1-.822.5227-1.811.784-2.968.784zm1.568-3.332c.765 0 1.39-.1773 1.876-.532.504-.3547.877-.812 1.12-1.372.242-.5787.364-1.1853.364-1.82v-1.428c0-.6533-.122-1.26-.364-1.82-.243-.56-.616-1.0173-1.12-1.372-.486-.3547-1.111-.532-1.876-.532-1.008 0-1.82.364-2.436 1.092-.616.7093-.924 1.8293-.924 3.36 0 1.512.308 2.632.924 3.36.616.7093 1.428 1.064 2.436 1.064z"/><path d="m127.107 16.0599v-3.472h4.116v3.472zm0 16.94v-15.008h4.116v15.008z"/><path d="m134.204 32.9999v-15.008h3.948l.168 2.716h.168c.41-.9893 1.045-1.736 1.904-2.24.858-.504 1.82-.756 2.884-.756 1.008 0 1.904.2053 2.688.616.802.4107 1.437 1.0733 1.904 1.988.466.896.7 2.1.7 3.612v9.072h-4.116v-8.176c0-1.2693-.224-2.212-.672-2.828s-1.167-.924-2.156-.924c-1.064 0-1.886.364-2.464 1.092-.56.7093-.84 1.54-.84 2.492v8.344z"/><path d="m154.806 37.6759c-1.718 0-2.987-.2893-3.808-.868-.803-.5787-1.204-1.3533-1.204-2.324 0-.8213.298-1.484.896-1.988.597-.504 1.278-.7933 2.044-.868v-.224c-.598-.1867-1.074-.4947-1.428-.924-.336-.448-.504-.952-.504-1.512 0-.672.224-1.2413.672-1.708.466-.4853 1.073-.812 1.82-.98v-.28c-.635-.3547-1.148-.84-1.54-1.456-.374-.616-.56-1.344-.56-2.184 0-1.4.56-2.52 1.68-3.36 1.138-.8587 2.66-1.288 4.564-1.288.317 0 .644.028.98.084.354.0373.681.1027.98.196.261-1.064.83-1.8947 1.708-2.492.877-.616 2.025-.9333 3.444-.952v3.192c-.71-.0187-1.344.0653-1.904.252-.56.168-.99.4387-1.288.812.672.3173 1.222.8213 1.652 1.512.429.672.644 1.4467.644 2.324 0 1.3813-.551 2.4827-1.652 3.304-1.083.8213-2.623 1.232-4.62 1.232-.374 0-.747-.0187-1.12-.056-.374-.0373-.738-.0933-1.092-.168-.299.0187-.542.1213-.728.308-.168.168-.252.3827-.252.644 0 .3547.196.588.588.7.41.0933.868.14 1.372.14h3.64c1.754 0 3.042.3453 3.864 1.036.84.672 1.278 1.6707 1.316 2.996.037 1.12-.196 2.0347-.7 2.744-.486.728-1.176 1.2693-2.072 1.624s-1.932.532-3.108.532zm2.66-13.076c.765 0 1.353-.196 1.764-.588.41-.4107.616-.9333.616-1.568 0-.6907-.224-1.2227-.672-1.596s-1.027-.56-1.736-.56c-.747 0-1.335.2053-1.764.616-.43.4107-.644.924-.644 1.54 0 .672.224 1.204.672 1.596.448.3733 1.036.56 1.764.56zm-2.044 10.78h3.612c1.25 0 1.876-.476 1.876-1.428 0-.5413-.178-.8867-.532-1.036-.355-.168-.766-.252-1.232-.252h-4.592c-.355.0747-.644.2333-.868.476s-.336.532-.336.868c0 .4667.177.812.532 1.036.373.224.886.336 1.54.336z"/><path d="m166.973 32.9999v-20.412h10.024c2.072 0 3.631.4853 4.676 1.456 1.045.952 1.568 2.212 1.568 3.78 0 1.0453-.271 1.9787-.812 2.8-.523.8213-1.279 1.372-2.268 1.652v.224c1.176.2427 2.072.7933 2.688 1.652.635.84.952 1.8387.952 2.996 0 1.9227-.644 3.3787-1.932 4.368-1.269.9893-3.071 1.484-5.404 1.484zm4.228-12.04h4.76c1.008 0 1.736-.2333 2.184-.7.467-.4667.7-1.0733.7-1.82 0-.84-.28-1.4653-.84-1.876-.541-.4293-1.269-.644-2.184-.644h-4.62zm0 8.68h4.788c1.157 0 2.007-.252 2.548-.756s.812-1.1667.812-1.988c0-.9333-.289-1.6147-.868-2.044-.56-.448-1.335-.672-2.324-.672h-4.956z"/><path d="m185.953 32.9999v-20.412h4.116v20.412z"/><path d="m199.686 33.2519c-1.494 0-2.81-.308-3.948-.924-1.139-.616-2.026-1.5027-2.66-2.66-.616-1.1573-.924-2.548-.924-4.172 0-1.5493.298-2.9027.896-4.06.597-1.176 1.456-2.0907 2.576-2.744s2.473-.98 4.06-.98c1.493 0 2.8.308 3.92.924 1.138.616 2.016 1.512 2.632 2.688.634 1.1573.952 2.548.952 4.172 0 1.5493-.299 2.912-.896 4.088-.598 1.1573-1.456 2.0627-2.576 2.716-1.102.6347-2.446.952-4.032.952zm-.028-3.332c1.008 0 1.82-.364 2.436-1.092s.924-1.8387.924-3.332-.299-2.604-.896-3.332c-.598-.728-1.41-1.092-2.436-1.092-1.027 0-1.848.364-2.464 1.092s-.924 1.8387-.924 3.332c0 1.4747.298 2.5853.896 3.332.616.728 1.437 1.092 2.464 1.092z"/><path d="m216.077 33.2519c-1.494 0-2.8-.3173-3.92-.952-1.12-.6533-1.988-1.5587-2.604-2.716-.616-1.176-.924-2.5387-.924-4.088 0-1.568.308-2.9307.924-4.088.634-1.176 1.521-2.0813 2.66-2.716 1.138-.6533 2.473-.98 4.004-.98 1.288 0 2.436.2427 3.444.728s1.801 1.1573 2.38 2.016c.597.8587.924 1.8573.98 2.996h-4.032c-.131-.784-.458-1.372-.98-1.764-.523-.4107-1.158-.616-1.904-.616-1.083 0-1.904.4013-2.464 1.204s-.84 1.876-.84 3.22c0 1.4747.298 2.576.896 3.304.616.728 1.409 1.092 2.38 1.092.877 0 1.568-.224 2.072-.672.522-.448.821-1.036.896-1.764h4.004c-.056 1.176-.392 2.2027-1.008 3.08-.598.8587-1.41 1.5307-2.436 2.016-1.027.4667-2.203.7-3.528.7z"/><path d="m225.016 32.9999v-20.412h4.172v11.62l1.232-1.428 4.452-4.788h5.068l-5.768 5.936 5.88 9.072h-4.844l-3.052-4.76-.896-1.568-2.072 2.044v4.284z"/><path d="m247.265 33.2799c-2.184 0-3.874-.4573-5.068-1.372-1.176-.9333-1.755-2.1467-1.736-3.64h4.032c.018.8027.298 1.3813.84 1.736.56.336 1.241.504 2.044.504.84 0 1.474-.14 1.904-.42.429-.2987.644-.7.644-1.204 0-.6907-.252-1.1387-.756-1.344-.486-.2053-1.26-.3827-2.324-.532-1.102-.1493-2.11-.364-3.024-.644-.915-.2987-1.643-.7467-2.184-1.344-.523-.5973-.784-1.4467-.784-2.548 0-1.5867.597-2.772 1.792-3.556 1.213-.8027 2.8-1.204 4.76-1.204 1.922 0 3.453.42 4.592 1.26 1.138.8213 1.726 1.9787 1.764 3.472h-4.032c0-.6347-.224-1.12-.672-1.456-.43-.336-1.018-.504-1.764-.504-.766 0-1.344.1493-1.736.448-.392.28-.588.6533-.588 1.12 0 .56.252.952.756 1.176s1.306.4107 2.408.56c.784.112 1.53.252 2.24.42.709.1493 1.334.392 1.876.728.56.3173.998.7653 1.316 1.344.336.56.504 1.2973.504 2.212 0 1.6427-.607 2.856-1.82 3.64-1.214.7653-2.875 1.148-4.984 1.148z"/></g></svg>